<svg xmlns="http://www.w3.org/2000/svg" version="1.1" xmlns:xlink="http://www.w3.org/1999/xlink" xmlns:svgjs="http://svgjs.dev/svgjs" width="100%" height="100%" viewBox="0 0 1000 600"><rect width="1000" height="600" x="0" y="0" fill="#e2d1f9"/><g><rect width="333.3333333333333" height="333.3333333333333" rx="13.333333333333334" ry="13.333333333333334" y="260.27042338405545" fill="#317773" transform="matrix(0.5251038220957951,0,0,0.5251038220957952,0,75.81371786175245)" x="238.04821777343747"/><path d="M356.8808833825752 490.2771545853411L356.8808833825752 490.2771545853411Q358.86468888718804 477.2002325855462 360.1602353391801 459.6698696570286Q361.4557817911721 442.1799925551357 361.4557817911721 424.2447713603706L361.4557817911721 424.2447713603706Q361.4557817911721 407.72655409747176 360.4436361255533 395.2164336704234Q359.43149045993454 382.66582741675023 356.8808833825752 375.25692114442063L356.8808833825752 375.25692114442063Q355.18047866433557 371.00590934882166 355.18047866433557 367.6050999123425L355.18047866433557 367.6050999123425Q355.18047866433557 363.3136022901188 357.3262274754474 360.7629952127594Q359.43149045993454 358.21238813540003 362.5893849366652 358.21238813540003L362.5893849366652 358.21238813540003Q366.8403967322642 358.21238813540003 369.99829120899483 363.59700307649206Q373.11569985910074 369.0221038442088 374.97804788383934 378.131414834778Q376.79991008195316 387.2407258253472 377.65011244107296 399.0625871997748Q378.50031480019277 410.8439627475777 378.50031480019277 423.677969787624L378.50031480019277 423.677969787624Q378.50031480019277 441.6131909823892 377.3667116546997 457.52412084591674Q376.23310850920666 473.475536536069 375.0995053637136 484.568653031251L375.0995053637136 484.568653031251Q383.9254155679095 483.71845067213127 394.61367379684407 480.6010420220254Q405.26144619915385 477.4836333719195 414.6541579760963 472.0585326042027Q424.0468697530388 466.63343183648595 430.3221728798753 458.8196672979088Q436.5974760067119 451.00590275933166 436.5974760067119 440.47958783689614L436.5974760067119 440.47958783689614Q436.5974760067119 432.78728077819324 429.18856973438227 427.3621800104765Q421.77966346205267 421.97756506938447 411.82015011236365 421.97756506938447L411.82015011236365 421.97756506938447Q409.8363446077508 421.97756506938447 407.852539103138 422.382423335632Q405.82824777190035 422.8277674285043 403.8444422672875 422.8277674285043L403.8444422672875 422.8277674285043Q399.31002968531527 422.8277674285043 396.4355359949579 419.38647216540033Q393.6015281312253 415.98566272892117 393.6015281312253 412.54436746581723L393.6015281312253 412.54436746581723Q393.6015281312253 410.56056196120437 397.89302575344897 406.714408431853Q402.14403754904794 402.8682549025015 407.28573753039143 397.888498227657Q412.3869516851102 392.9087415528125 416.6784493073339 387.0787825188482Q420.92946110293286 381.2488234848839 420.92946110293286 374.9735203580474L420.92946110293286 374.9735203580474Q420.92946110293286 372.9897148534345 419.6339146509408 371.7346542280672Q418.3788540255735 370.4391077760751 416.6784493073339 369.8723062033286Q414.93755876246956 369.3055046305821 412.9537532578567 369.14356132408307Q410.9699477532439 369.0221038442088 409.2695430350043 369.0221038442088L409.2695430350043 369.0221038442088Q404.41124384003405 369.0221038442088 399.5934304716886 370.56056525594937Q394.73513127671833 372.1395124943147 391.33432184023917 372.1395124943147L391.33432184023917 372.1395124943147Q388.21691319013325 372.1395124943147 386.4760226452689 369.3055046305821Q384.7756179270293 366.43101094022467 384.7756179270293 363.59700307649206L384.7756179270293 363.59700307649206Q384.7756179270293 360.19619364001284 387.4881683108877 357.888501522402Q390.20071869474606 355.6212952314159 394.1683297039718 354.3662346060486Q398.1764265398222 353.07068815405654 402.71083912179444 352.50388658131Q407.28573753039143 351.93708500856343 411.25334853961715 351.93708500856343L411.25334853961715 351.93708500856343Q421.77966346205267 351.93708500856343 429.7553713071288 356.35004011066144Q437.731079152205 360.7629952127594 437.731079152205 371.28931013519497L437.731079152205 371.28931013519497Q437.731079152205 379.8318195530176 432.46792169098717 389.7913329027066Q427.20476422976947 399.7508462523956 420.07925874381306 406.5929509519787L420.07925874381306 406.5929509519787Q426.35456187064966 407.44315331109846 432.46792169098717 410.2771611748311Q438.58128151132473 413.1516548651885 443.439580706295 417.6860674471607Q448.2573940746405 422.2609658557577 451.25334524487215 427.928981583223Q454.2492964151038 433.63748313731304 454.2492964151038 440.19618705052284L454.2492964151038 440.19618705052284Q454.2492964151038 453.8399106230643 446.9618476226484 465.2164279046196Q439.71488465681784 476.6334310127997 427.89302328239023 484.7305963377501Q416.1116477345874 492.8277616627005 401.0104344035549 497.4026600712975Q385.90922107252237 501.9370726532697 370.2816919953681 501.9370726532697L370.2816919953681 501.9370726532697Q364.00638886853153 501.9370726532697 360.28169281905434 499.83180966878257Q356.5974825962019 497.6860608576707 356.5974825962019 491.9775593035807L356.5974825962019 491.9775593035807Q356.5974825962019 491.4107577308342 356.7594259027009 491.1273569444609Q356.8808833825752 490.8439561580877 356.8808833825752 490.2771545853411Z " fill="#e2d1f9" transform="matrix(0.5251038220957951,0,0,0.5251038220957952,0,75.81371786175245)"/><path d="M656.3529526016713 486.5704731630469L656.3529526016713 486.5704731630469Q658.2640289006694 473.97297021250876 659.5120787285865 457.08529597850554Q660.7601285565037 440.2366233016248 660.7601285565037 422.9589334963975L660.7601285565037 422.9589334963975Q660.7601285565037 407.04629819045454 659.7850896284434 394.99481703963005Q658.8100507003832 382.9043343316832 656.3529526016713 375.7670493782823L656.3529526016713 375.7670493782823Q654.7148872025301 371.67188588042933 654.7148872025301 368.395755082147L654.7148872025301 368.395755082147Q654.7148872025301 364.2615900271716 656.7819697300179 361.8044919284598Q658.8100507003832 359.34739382974806 661.852172155931 359.34739382974806L661.852172155931 359.34739382974806Q665.9473356537841 359.34739382974806 668.989457109332 364.53460092702846Q671.9925770077574 369.76080958143126 673.7866486353884 378.53615993397335Q675.5417187058966 387.31151028651544 676.3607514054673 398.69996496625896Q677.1797841050379 410.04941808888003 677.1797841050379 422.41291169668375L677.1797841050379 422.41291169668375Q677.1797841050379 439.69060150191103 676.0877405056104 455.01821345101786Q674.995696906183 470.38482695724707 673.9036533067555 481.07125360878723L673.9036533067555 481.07125360878723Q682.4059927594407 480.25222090921665 692.7024038397568 477.2491010107911Q702.9598133629504 474.2459811123656 712.0081746153493 469.0197724579628Q721.0565358677483 463.79356380355995 727.1017772217217 456.26626327893496Q733.1470185756951 448.73896275430997 733.1470185756951 438.5985579024836L733.1470185756951 438.5985579024836Q733.1470185756951 431.18826204922584 726.0097336222942 425.962053394823Q718.8724486688933 420.7748462975426 709.2780656167807 420.7748462975426L709.2780656167807 420.7748462975426Q707.3669893177827 420.7748462975426 705.4559130187846 421.16486186876665Q703.5058351626641 421.59387899711317 701.594758863666 421.59387899711317L701.594758863666 421.59387899711317Q697.2265844659563 421.59387899711317 694.4574739102652 418.2787466417084Q691.7273649116966 415.002615843426 691.7273649116966 411.6874834880212L691.7273649116966 411.6874834880212Q691.7273649116966 409.77640718902313 695.8615299666719 406.0712592623943Q699.9566934645248 402.3661113357654 704.9098912190708 397.5689198097091Q709.8240874164944 392.77172828365275 713.9582524714698 387.1555040580258Q718.0534159693228 381.5392798323989 718.0534159693228 375.49403847842547L718.0534159693228 375.49403847842547Q718.0534159693228 373.5829621794274 716.8053661414057 372.3739139086327Q715.596317870611 371.12586408071564 713.9582524714698 370.5798422810019Q712.2811855152062 370.03382048128816 710.3701092162081 369.8778142527985Q708.45903291721 369.76080958143126 706.8209675180689 369.76080958143126L706.8209675180689 369.76080958143126Q702.1407806633798 369.76080958143126 697.4995953658131 371.24286875208287Q692.8194085111239 372.7639294798568 689.5432777128416 372.7639294798568L689.5432777128416 372.7639294798568Q686.5401578144161 372.7639294798568 684.8630908581525 370.03382048128816Q683.2250254590114 367.26470992559706 683.2250254590114 364.53460092702846L683.2250254590114 364.53460092702846Q683.2250254590114 361.25847012874607 685.8381297862128 359.03538137276877Q688.4512341134142 356.85129417391386 692.2733867114102 355.64224590311915Q696.1345408665287 354.39419607520205 700.5027152642386 353.84817427548836Q704.9098912190708 353.3021524757746 708.7320438170669 353.3021524757746L708.7320438170669 353.3021524757746Q718.8724486688933 353.3021524757746 726.555755422008 357.5533222021172Q734.2390621751225 361.8044919284598 734.2390621751225 371.94489678028623L734.2390621751225 371.94489678028623Q734.2390621751225 380.1742253331145 729.1688597492094 389.76860838522725Q724.0986573232962 399.36299143733993 717.2343832697521 405.95425459102705L717.2343832697521 405.95425459102705Q723.2796246237257 406.77328729059764 729.1688597492094 409.5033962891663Q735.0580948746932 412.27250684485733 739.7382817293823 416.64068124256715Q744.379467026949 421.0478571973994 747.2655822540072 426.50807519453673Q750.1516974810656 432.0072947487964 750.1516974810656 438.3255470026267L750.1516974810656 438.3255470026267Q750.1516974810656 451.4690717528786 743.131417199032 462.4285093042756Q736.1501384741206 473.426948412795 724.7616837943771 481.22725983727685Q713.412230671756 489.02757126175874 698.8646498650975 493.43474721659095Q684.3170690584387 497.8029216143008 669.2624680091889 497.8029216143008L669.2624680091889 497.8029216143008Q663.2172266552153 497.8029216143008 659.6290833999537 495.77484064393553Q656.0799417018145 493.7077581164478 656.0799417018145 488.2085385621881L656.0799417018145 488.2085385621881Q656.0799417018145 487.66251676247435 656.2359479303042 487.3895058626175Q656.3529526016713 487.11649496276067 656.3529526016713 486.5704731630469ZM791.2593386880849 406.5002763907408L791.2593386880849 406.5002763907408Q794.5744710434897 405.13522189145647 796.2125364426308 405.13522189145647L796.2125364426308 405.13522189145647Q798.3966236414858 405.13522189145647 800.6197123974632 406.5002763907408L800.6197123974632 406.5002763907408Q802.5307886964611 406.2272654908839 804.8318805666834 405.79824836253744Q807.1719739940279 405.4082327913133 808.8100393931691 405.4082327913133L808.8100393931691 405.4082327913133Q817.858400645568 405.4082327913133 825.2686964988256 409.1133807179422Q832.6789923520835 412.8185286445711 838.0222056778534 419.09777934127897Q843.3654190036236 425.41603159510925 846.4075404591715 433.91837104779444Q849.410660357597 442.4207105004797 849.410660357597 452.01509355259236L849.410660357597 452.01509355259236Q849.410660357597 460.51743300527755 846.251534230682 468.3177444297594Q843.0924081037667 476.15705741136367 837.4761838781399 482.20229876533705Q831.859959652513 488.2085385621881 824.4496637992552 491.7966818174497Q817.0393679459974 495.34582351558896 808.8100393931691 495.34582351558896L808.8100393931691 495.34582351558896Q798.6696345413427 495.34582351558896 790.1672950886575 492.0696927173066Q781.6649556359723 488.75456036190184 775.6587158391212 483.02133146490763Q769.6134744851477 477.2491010107911 766.1813374583758 469.29278335781964Q762.7492004316036 461.33646570484814 762.7492004316036 452.01509355259236L762.7492004316036 452.01509355259236Q762.7492004316036 444.6047976993346 764.387265830745 436.80448627485276Q766.0643327870087 428.9651732932485 769.6134744851477 422.41291169668375Q773.1626161832871 415.82164854299657 778.5058295090571 411.41447258816436Q783.8880443919495 407.04629819045454 791.2593386880849 406.5002763907408ZM794.5744710434897 420.7748462975426L794.5744710434897 420.7748462975426Q788.802240589373 421.59387899711317 785.7991206909476 425.0260160238852Q782.7569992353997 428.4191514935348 781.2749400647481 433.09933834822385Q779.7538793369743 437.7405236457906 779.4808684371174 442.8497276288262Q779.2078575372605 447.9199300547394 779.2078575372605 452.01509355259236L779.2078575372605 452.01509355259236Q779.2078575372605 456.9682913071383 780.8459229364016 462.03849373305155Q782.4839883355428 467.10869615896473 786.1891362621716 471.08685498545043Q789.8942841888006 475.0650138119362 795.3935037430604 477.522111910648Q800.8927232973199 479.97921000935975 808.8100393931691 479.97921000935975L808.8100393931691 479.97921000935975Q814.8552807471424 479.97921000935975 819.6524722731988 477.6781181391376Q824.4496637992552 475.3380247117931 827.6087899261702 471.35986588530733Q830.7679160530854 467.3817070588216 832.4059814522266 462.4285093042756Q834.0440468513677 457.51431310685206 834.0440468513677 452.01509355259236L834.0440468513677 452.01509355259236Q834.0440468513677 437.7405236457906 827.2187743549462 428.5751577220244Q820.3545003014021 419.3707902411358 808.8100393931691 418.5517575415652L808.8100393931691 418.5517575415652L803.6228322958887 418.5517575415652Q801.4387450970337 418.5517575415652 798.9426454411996 419.6438011409927Q796.4855473424877 420.7748462975426 794.5744710434897 420.7748462975426ZM897.6945880751396 406.5002763907408L897.6945880751396 406.5002763907408Q900.9707188734221 405.13522189145647 902.6087842725633 405.13522189145647L902.6087842725633 405.13522189145647Q904.7928714714183 405.13522189145647 907.0159602273955 406.5002763907408L907.0159602273955 406.5002763907408Q908.9270365263935 406.2272654908839 911.267129953738 405.79824836253744Q913.5682218239604 405.4082327913133 915.2452887802237 405.4082327913133L915.2452887802237 405.4082327913133Q924.2936500326227 405.4082327913133 931.6649443287581 409.1133807179422Q939.0752401820159 412.8185286445711 944.4184535077859 419.09777934127897Q949.8006683906783 425.41603159510925 952.803788289104 433.91837104779444Q955.8069081875294 442.4207105004797 955.8069081875294 452.01509355259236L955.8069081875294 452.01509355259236Q955.8069081875294 460.51743300527755 952.6477820606142 468.3177444297594Q949.4886559336992 476.15705741136367 943.8724317080723 482.20229876533705Q938.2562074824452 488.2085385621881 930.8459116291874 491.7966818174497Q923.474617333052 495.34582351558896 915.2452887802237 495.34582351558896L915.2452887802237 495.34582351558896Q905.0658823712749 495.34582351558896 896.5635429185897 492.0696927173066Q888.0612034659046 488.75456036190184 882.0549636690537 483.02133146490763Q876.0097223150801 477.2491010107911 872.577585288308 469.29278335781964Q869.1454482615361 461.33646570484814 869.1454482615361 452.01509355259236L869.1454482615361 452.01509355259236Q869.1454482615361 444.6047976993346 870.8225152177997 436.80448627485276Q872.4605806169409 428.9651732932485 876.0097223150801 422.41291169668375Q879.5978655703418 415.82164854299657 884.9410788961118 411.41447258816436Q890.284292221882 407.04629819045454 897.6945880751396 406.5002763907408ZM900.9707188734221 420.7748462975426L900.9707188734221 420.7748462975426Q895.1984884193055 421.59387899711317 892.19536852088 425.0260160238852Q889.1922486224544 428.4191514935348 887.6711878946805 433.09933834822385Q886.1501271669065 437.7405236457906 885.8771162670496 442.8497276288262Q885.6041053671929 447.9199300547394 885.6041053671929 452.01509355259236L885.6041053671929 452.01509355259236Q885.6041053671929 456.9682913071383 887.2421707663341 462.03849373305155Q888.9192377225975 467.10869615896473 892.585384092104 471.08685498545043Q896.2905320187328 475.0650138119362 901.7897515729926 477.522111910648Q907.2889711272524 479.97921000935975 915.2452887802237 479.97921000935975L915.2452887802237 479.97921000935975Q921.2515285770749 479.97921000935975 926.0487201031312 477.6781181391376Q930.8459116291874 475.3380247117931 934.0050377561026 471.35986588530733Q937.1641638830179 467.3817070588216 938.802229282159 462.4285093042756Q940.4402946813002 457.51431310685206 940.4402946813002 452.01509355259236L940.4402946813002 452.01509355259236Q940.4402946813002 437.7405236457906 933.6150221848786 428.5751577220244Q926.7507481313346 419.3707902411358 915.2452887802237 418.5517575415652L915.2452887802237 418.5517575415652L910.0190801258211 418.5517575415652Q907.8349929269662 418.5517575415652 905.3388932711318 419.6438011409927Q902.88179517242 420.7748462975426 900.9707188734221 420.7748462975426ZM1005.7289013042132 456.9682913071383L1005.7289013042132 456.9682913071383Q1002.7257814057878 459.1523785059932 999.9566708500965 459.1523785059932L999.9566708500965 459.1523785059932Q998.0455945510987 459.1523785059932 997.226561851528 458.60635670627954L997.226561851528 458.60635670627954Q997.226561851528 466.562674359251 997.8895883226089 473.69995931265186Q998.5916163508123 480.7982427089304 998.5916163508123 486.84348406290377L998.5916163508123 486.84348406290377Q998.5916163508123 492.3427036171635 996.2515229234677 494.7998017158753Q993.9504310532457 497.25689981458703 990.9083095976978 497.25689981458703L990.9083095976978 497.25689981458703Q988.4512114989859 497.25689981458703 986.3841289714983 495.0728126157321Q984.3170464440107 492.8887254168772 983.7710246442969 488.2085385621881L983.7710246442969 488.2085385621881Q981.8599483452988 472.56891415610204 981.1969218742179 453.1071371520198Q980.4948938460145 433.6453601479376 980.4948938460145 413.91057224399856L980.4948938460145 413.91057224399856Q980.4948938460145 399.36299143733993 980.923910974361 386.06346045859834Q981.313926545585 372.7639294798568 982.6789810448693 361.53148102860297L982.6789810448693 361.53148102860297Q982.9519919447262 356.578283274057 985.7211025004174 354.66720697505895Q988.4512114989859 352.7561306760609 991.4543313974116 352.7561306760609L991.4543313974116 352.7561306760609Q994.2234419531026 352.7561306760609 996.4075291519575 355.21322877477263Q998.5916163508123 357.67032687348444 998.5916163508123 361.8044919284598L998.5916163508123 361.8044919284598Q998.5916163508123 370.85285318085874 997.4995727513849 383.7233670312538Q996.4075291519575 396.6328824387713 996.4075291519575 413.0915395444279L996.4075291519575 413.0915395444279Q996.4075291519575 421.0478571973994 996.5245338233246 428.69216239339164Q996.6805400518142 436.37546914650625 996.9535509516711 444.33178679947775L996.9535509516711 444.33178679947775Q1003.2718032055016 439.4175906020542 1007.7959838317008 435.55643644693566Q1012.3201644579003 431.7342838489396 1016.1423170558965 427.7561250224538Q1020.003471211015 423.7779661959681 1023.8256238090112 419.09777934127897Q1027.6477764070073 414.45659404371224 1032.6009741615535 408.13834178988196L1032.6009741615535 408.13834178988196Q1035.331083160122 404.5892000917427 1039.1922373152406 404.5892000917427L1039.1922373152406 404.5892000917427Q1042.1953572136658 404.5892000917427 1043.989428841297 406.5002763907408Q1045.7444989118053 408.41135268973886 1045.7444989118053 411.41447258816436L1045.7444989118053 411.41447258816436Q1045.7444989118053 415.002615843426 1043.0143899132368 418.5517575415652L1043.0143899132368 418.5517575415652Q1035.058072260265 428.9651732932485 1026.1657172363557 438.71556257385083Q1017.2343606553238 448.4659518544531 1005.7289013042132 456.9682913071383ZM1044.106433512664 494.25377991616153L1044.106433512664 494.25377991616153Q1040.557291814525 492.3427036171635 1035.4870893886114 488.6375556905346Q1030.4168869626983 484.9324077639057 1025.619695436642 480.7982427089304Q1020.8225039105855 476.7030792110774 1017.3903668838136 472.4519094847348Q1013.9582298570415 468.20073975839216 1013.9582298570415 464.6515980602529L1013.9582298570415 464.6515980602529Q1013.9582298570415 461.60947660470504 1016.2983232843862 459.54239407721735Q1018.5994151546083 457.51431310685206 1021.6415366101562 457.51431310685206L1021.6415366101562 457.51431310685206Q1024.9176674084388 457.51431310685206 1028.193798206721 460.7904439051344L1028.193798206721 460.7904439051344Q1033.1469959612668 467.3817070588216 1038.7632201868942 472.0228923563883Q1044.379444412521 476.7030792110774 1053.42780566492 482.74832056505085L1053.42780566492 482.74832056505085Q1057.0159489201815 485.4784295636195 1057.0159489201815 489.02757126175874L1057.0159489201815 489.02757126175874Q1057.0159489201815 492.0696927173066 1054.7928601642043 494.0977736876719Q1052.608772965349 496.16485621515955 1049.6056530669239 496.16485621515955L1049.6056530669239 496.16485621515955Q1046.8755440683549 496.16485621515955 1044.106433512664 494.25377991616153ZM1213.0611789669406 429.5501966500846L1213.0611789669406 429.5501966500846Q1209.200024811822 434.19138194765134 1204.2858286143987 434.19138194765134L1204.2858286143987 434.19138194765134Q1199.3326308598525 434.19138194765134 1194.3794331053068 427.3271078941073Q1189.465236907883 420.4628338405633 1184.785050053194 411.9994959450005L1184.785050053194 411.9994959450005L1174.098623401654 392.225706483939Q1173.2795907020836 390.58764108479784 1173.2795907020836 388.9495756856566L1173.2795907020836 388.9495756856566Q1173.2795907020836 385.361432430395 1175.8926950292848 382.6313234318264Q1178.505799356486 379.9012144332577 1181.5089192549117 379.9012144332577L1181.5089192549117 379.9012144332577Q1184.2390282534802 379.9012144332577 1187.554160608885 384.9714168591709Q1190.8302914071674 390.0416192850841 1193.9894175340828 396.20386531042476Q1197.1485436609978 402.3661113357654 1200.1516635594235 407.475315318801Q1203.1547834578487 412.54551774471423 1205.650883113683 412.54551774471423L1205.650883113683 412.54551774471423Q1207.2889485128244 412.54551774471423 1208.6540030121087 410.3224289887369L1208.6540030121087 410.3224289887369Q1220.159462363219 393.8637718830802 1227.179742645253 384.1523841596003Q1234.1610213701642 374.401994878998 1238.1391801966502 369.0587815532279Q1242.1173390231356 363.7155682274579 1243.5993981937872 361.6484856999702Q1245.1204589215613 359.6204047296049 1245.9394916211318 358.76237047291187L1245.9394916211318 358.76237047291187Q1246.7585243207022 355.48623967462953 1249.0986177480468 353.6921680469987Q1251.4387111753913 351.9370979764903 1253.8958092741032 351.9370979764903L1253.8958092741032 351.9370979764903Q1256.352907372815 351.9370979764903 1258.8490070286493 353.84817427548836Q1261.3061051273612 355.75925057448643 1261.8521269270746 359.8934156294618L1261.8521269270746 359.8934156294618Q1264.3092250257864 374.6750057788549 1265.2842639538467 392.1087018125718Q1266.259302881907 409.5033962891663 1266.259302881907 427.60011879396416L1266.259302881907 427.60011879396416Q1266.259302881907 437.4675127459337 1265.5572748537038 450.2210219249615Q1264.8552468255002 462.97453110398936 1263.2171814263593 474.3629857837328Q1261.5791160272179 485.7514404634763 1258.5759961287922 493.7077581164478Q1255.5338746732446 501.6640757694193 1251.1657002755346 501.6640757694193L1251.1657002755346 501.6640757694193Q1248.162580377109 501.6640757694193 1245.8224869497644 499.47998857056433Q1243.48239352242 497.25689981458703 1243.48239352242 492.6157145170203L1243.48239352242 492.6157145170203Q1243.48239352242 490.392625761043 1243.755404422277 489.3005821616156L1243.755404422277 489.3005821616156Q1247.304546120416 473.69995931265186 1248.82560684819 456.8122850786487Q1250.3466675759641 439.9636124017679 1250.3466675759641 424.3239879956818L1250.3466675759641 424.3239879956818Q1250.3466675759641 412.27250684485733 1249.8006457762503 401.27406773633794Q1249.2546239765365 390.31463018494094 1248.7086021768228 380.7202471328283L1248.7086021768228 380.7202471328283L1229.207823615618 408.41135268973886Q1224.0206165183376 415.2756267432829 1219.769446791995 421.0478571973994Q1215.5182770656525 426.7810860943936 1213.0611789669406 429.5501966500846ZM1169.7304490039442 367.53772082545396L1169.7304490039442 369.2147877817176Q1168.3263929475374 379.9012144332577 1167.7803711478236 394.7218061397732Q1167.2343493481098 409.5033962891663 1167.2343493481098 425.962053394823L1167.2343493481098 425.962053394823Q1167.2343493481098 442.4207105004797 1168.20938827617 458.45035047778987Q1169.1844272042304 474.51899201222244 1169.1844272042304 486.84348406290377L1169.1844272042304 486.84348406290377Q1169.1844272042304 492.3427036171635 1166.8443337768858 494.7998017158753Q1164.5042403495413 497.25689981458703 1161.5011204511156 497.25689981458703L1161.5011204511156 497.25689981458703Q1159.0050207952818 497.25689981458703 1156.9769398249164 495.0728126157321Q1154.9098572974285 492.8887254168772 1154.3638354977152 488.2085385621881L1154.3638354977152 488.2085385621881Q1152.4527591987166 472.56891415610204 1151.7507311705135 453.9261698515904Q1151.04870314231 435.2834255470788 1151.04870314231 417.1867030422809L1151.04870314231 417.1867030422809Q1151.04870314231 403.4971564923153 1151.4777202706568 390.8606519846547Q1151.9067373990033 378.2631490341165 1153.2717918982876 366.9916990257402L1153.2717918982876 366.9916990257402Q1153.5448027981442 362.07750282831665 1156.4309180252026 360.1664265293186Q1159.2780316951385 358.2163486731982 1162.3201531506866 358.2163486731982L1162.3201531506866 358.2163486731982Q1165.3232730491118 358.2163486731982 1167.5073602479665 360.8294530003996Q1169.7304490039442 363.44255732760104 1169.7304490039442 367.53772082545396L1169.7304490039442 367.53772082545396ZM1325.4636665937242 421.3208680972563L1325.4636665937242 421.3208680972563L1318.3653831974457 421.3208680972563Q1313.6851963427566 423.7779661959681 1311.2280982440448 427.87312969382106Q1308.7319985882104 432.0072947487964 1307.522950317416 436.53147537499586Q1306.274900489499 441.05565600119536 1306.001889589642 445.15081949904834Q1305.7288786897852 449.2849845540237 1305.7288786897852 451.7420826527355L1305.7288786897852 451.7420826527355Q1305.7288786897852 457.24130220699516 1307.2499394175593 462.1554984044188Q1308.7319985882104 467.10869615896473 1311.6181138152688 470.8138440855936Q1314.504229042327 474.51899201222244 1318.3653831974457 476.7030792110774Q1322.1875357954418 478.8871664099323 1327.1407335499875 478.8871664099323L1327.1407335499875 478.8871664099323Q1335.9160839025299 478.8871664099323 1340.7132754285863 475.0650138119362Q1345.5104669546427 471.20385965681766 1347.8115588248647 465.47063075982356Q1350.1516522522093 459.69840030570697 1350.697674051923 452.99013248065256Q1351.2436958516369 446.24286309847577 1351.2436958516369 440.5096342014816L1351.2436958516369 440.5096342014816Q1350.697674051923 436.92149094622 1348.786597752925 433.2163430195911Q1346.875521453927 429.5501966500846 1343.9894062268686 426.7810860943936Q1341.1032909998103 424.0509770958249 1337.6711539730381 422.25690546819413Q1334.239016946266 420.4628338405633 1330.689875248127 420.4628338405633L1330.689875248127 420.4628338405633Q1327.9597662495585 420.4628338405633 1325.4636665937242 421.3208680972563ZM1362.7881567598697 469.0197724579628L1362.7881567598697 469.0197724579628Q1359.746035304322 481.6172754085009 1349.3326195526388 488.2085385621881Q1338.9192038009555 494.7998017158753 1326.2826992932946 494.7998017158753L1326.2826992932946 494.7998017158753Q1317.2343380408956 494.7998017158753 1310.2530593159845 490.82164288938947Q1303.2717805910734 486.84348406290377 1298.5915937363843 480.40822713770626Q1293.9504084388172 473.97297021250876 1291.6103150114727 465.86064633104763Q1289.2702215841282 457.7873240067089 1289.2702215841282 449.55799545388055L1289.2702215841282 449.55799545388055Q1289.2702215841282 442.9667323001934 1290.9082869832696 435.1664208757116Q1292.585353939533 427.3271078941073 1296.1344956376724 420.7748462975426Q1299.683637335812 414.1835831438554 1305.455867789928 409.6594025176559Q1311.2280982440448 405.13522189145647 1319.4574267968733 405.13522189145647L1319.4574267968733 405.13522189145647Q1323.8256011945832 405.13522189145647 1325.4636665937242 405.95425459102705L1325.4636665937242 405.95425459102705Q1326.8287210930084 405.6812436911702 1327.9597662495585 405.6812436911702Q1329.051809848986 405.6812436911702 1330.4168643482703 405.6812436911702L1330.4168643482703 405.6812436911702Q1343.2873781986655 405.6812436911702 1350.697674051923 411.1414616883075Q1358.1079699051807 416.64068124256715 1362.63215053138 425.299026923742Q1367.1563311575796 433.91837104779444 1369.8864401561482 444.33178679947775Q1372.6555507118392 454.745202551161 1376.4777033098353 464.33958560327363L1376.4777033098353 464.33958560327363Q1377.569746909263 467.6547179586784 1379.79283566524 471.63287678516417Q1381.9769228640953 475.6110356116499 1384.16101006295 479.43318820964606Q1386.3450972618048 483.29434236476453 1387.8661579895788 486.2974622631901Q1389.3872187173529 489.3005821616156 1389.3872187173529 490.97764911787914L1389.3872187173529 490.97764911787914Q1389.3872187173529 493.9807690163047 1387.1641299613757 495.61883441544586Q1384.9800427625205 497.25689981458703 1382.249933763952 497.25689981458703L1382.249933763952 497.25689981458703Q1379.480823208261 497.25689981458703 1376.633709538325 494.9168063872425Q1373.7475943112668 492.6157145170203 1371.1344899840656 488.75456036190184Q1368.521385656864 484.9324077639057 1366.3372984580092 479.7061991095029Q1364.153211259154 474.51899201222244 1362.7881567598697 469.0197724579628ZM1435.721068578775 411.9994959450005L1435.721068578775 411.9994959450005Q1440.089242976485 409.23038538930945 1446.017479659091 408.13834178988196Q1451.906714784575 407.04629819045454 1458.185965481283 407.04629819045454L1458.185965481283 407.04629819045454Q1466.9613158338248 407.5923199901682 1473.2795680876552 410.04941808888003Q1479.5978203414852 412.54551774471423 1483.6929838393385 417.34270927077057Q1487.8271488943137 422.1399007968269 1489.7382251933118 429.66720132145184Q1491.6493014923099 437.19450184607683 1491.6493014923099 448.1929409545962L1491.6493014923099 448.1929409545962Q1491.6493014923099 459.4253894058501 1490.5572578928823 469.1757786864524Q1489.4652142934551 478.8871664099323 1487.554137994457 486.1414560347004Q1485.643061695459 493.43474721659095 1483.0299573682573 497.68591694293355Q1480.4168530410561 501.93708666927614 1477.1407222427738 501.93708666927614L1477.1407222427738 501.93708666927614Q1474.6446225869395 501.93708666927614 1472.7335462879414 500.29902127013503Q1470.8224699889433 498.62195431387136 1470.8224699889433 495.0728126157321L1470.8224699889433 495.0728126157321Q1470.8224699889433 491.52367091759294 1471.7585073598812 485.8684451348435Q1472.7335462879414 480.25222090921665 1473.9815961158583 473.8169639840191Q1475.1906443866533 467.3817070588216 1476.1656833147135 460.67343923376717Q1477.1407222427738 453.9261698515904 1477.1407222427738 448.1929409545962L1477.1407222427738 448.1929409545962Q1477.1407222427738 440.2366233016248 1475.8926724148564 435.43943177556844Q1474.6446225869395 430.6422402495121 1472.3435307167174 427.7561250224538Q1470.0034372893729 424.87000979539556 1466.415294034111 423.6219599674784Q1462.866152335972 422.41291169668375 1458.185965481283 421.86688989697L1458.185965481283 421.86688989697Q1452.4527365842887 421.86688989697 1446.680506130172 423.7779661959681Q1440.9082756760554 425.68904249496615 1436.8131121782026 425.68904249496615L1436.8131121782026 425.68904249496615Q1434.3560140794907 425.68904249496615 1432.8349533517166 423.7779661959681Q1431.313892623943 421.86688989697 1431.313892623943 419.3707902411358L1431.313892623943 419.3707902411358Q1431.313892623943 417.4597139421378 1432.2889315520029 415.3926314146501Q1433.263970480063 413.3645504442848 1435.721068578775 411.9994959450005ZM1423.6695874279508 409.23038538930945L1423.6695874279508 409.23038538930945Q1423.6695874279508 427.3271078941073 1423.9425983278074 445.8528475272517Q1424.2156092276641 464.33958560327363 1426.3996964265193 479.43318820964606L1426.3996964265193 479.43318820964606L1426.3996964265193 481.3442645086441Q1426.3996964265193 486.0244513633332 1424.0596029991748 488.3645447906777Q1421.7195095718303 490.6656366608999 1418.9894005732617 490.6656366608999L1418.9894005732617 490.6656366608999Q1416.5323024745499 490.6656366608999 1414.3092137185722 488.48154946204494Q1412.1251265197175 486.2974622631901 1411.5791047200037 481.6172754085009L1411.5791047200037 481.6172754085009Q1410.2140502207194 468.47375065824906 1409.395017521149 454.4721916513041Q1408.575984821578 440.5096342014816 1408.575984821578 425.68904249496615L1408.575984821578 425.68904249496615Q1408.575984821578 422.6859225965406 1408.3029739217213 418.8247684414221Q1408.0299630218647 415.002615843426 1408.4199785930887 411.570478816654Q1408.8489957214351 408.13834178988196 1410.6430673490659 405.79824836253744Q1412.3981374195746 403.4971564923153 1416.2592915746927 403.4971564923153L1416.2592915746927 403.4971564923153Q1418.9894005732617 403.4971564923153 1421.3294940006062 405.2522265628237Q1423.6695874279508 407.04629819045454 1423.6695874279508 409.23038538930945ZM1532.7959442564515 415.002615843426L1532.7959442564515 416.91369214242405Q1532.2499224567377 423.23194439625433 1531.8209053283913 430.09621844979836Q1531.4308897571673 436.92149094622 1531.4308897571673 444.0587758996209L1531.4308897571673 444.0587758996209Q1531.4308897571673 454.1991807514473 1532.366927128105 464.33958560327363Q1533.3419660561653 474.51899201222244 1533.3419660561653 484.1133750643351L1533.3419660561653 484.1133750643351Q1533.3419660561653 489.5735930614724 1530.7288617289637 492.3427036171635Q1528.1157574017625 495.0728126157321 1525.1126375033368 495.0728126157321L1525.1126375033368 495.0728126157321Q1522.3825285047683 495.0728126157321 1520.5884568771376 493.00573008824443Q1518.7943852495068 490.97764911787914 1518.5213743496497 486.5704731630469L1518.5213743496497 486.5704731630469Q1517.7023416500792 474.2459811123656 1517.039315178998 463.94957003204956Q1516.337287150795 453.65315895173353 1516.337287150795 443.23974320005027L1516.337287150795 443.23974320005027Q1516.337287150795 439.1445797021973 1516.2202824794276 432.6703212198774Q1516.0642762509378 426.23506429467983 1516.7663042791414 420.34582916919607Q1517.429330750222 414.45659404371224 1519.49641327771 410.20542431736965Q1521.5634958051978 405.95425459102705 1525.9316702029078 405.95425459102705L1525.9316702029078 405.95425459102705Q1528.6617792014763 405.95425459102705 1530.7288617289637 408.41135268973886Q1532.7959442564515 410.8684507884506 1532.7959442564515 415.002615843426L1532.7959442564515 415.002615843426ZM1519.6134179490773 354.39419607520205L1519.6134179490773 354.39419607520205Q1520.7444631056273 353.84817427548836 1521.5634958051978 353.84817427548836L1521.5634958051978 353.84817427548836Q1522.655539404625 353.84817427548836 1523.5915767755632 354.1211851753452Q1524.5666157036235 354.39419607520205 1525.1126375033368 354.39419607520205L1525.1126375033368 354.39419607520205Q1526.4776920026216 354.1211851753452 1527.5697356020487 353.9651789468556Q1528.6617792014763 353.84817427548836 1530.065835257883 353.84817427548836L1530.065835257883 353.84817427548836Q1539.114196510282 353.84817427548836 1543.6383771364813 359.8934156294618Q1548.162557762681 365.8996554263128 1548.162557762681 372.7639294798568L1548.162557762681 372.7639294798568Q1548.162557762681 376.04006027813915 1546.641497034907 379.9012144332577Q1545.1204363071329 383.7233670312538 1542.273322637197 386.882493158169Q1539.3872074101387 390.0416192850841 1534.9800314553063 392.225706483939Q1530.6118570575968 394.44879523991636 1524.8396266034802 394.44879523991636L1524.8396266034802 394.44879523991636Q1521.017474005484 394.44879523991636 1517.7023416500792 392.49871738379585Q1514.426210851797 390.58764108479784 1511.969112753085 387.7015258577395Q1509.4730130972507 384.81541063068124 1508.1079585979664 381.1492642611748Q1506.7429040986822 377.4441163345459 1506.7429040986822 373.8559730792843L1506.7429040986822 373.8559730792843Q1506.7429040986822 368.395755082147 1510.448052025311 362.35051372817355Q1514.1531999519402 356.3052723742001 1519.6134179490773 354.39419607520205ZM1526.2046811027644 368.6687659820039L1526.2046811027644 368.6687659820039L1524.0205939039097 368.6687659820039Q1522.655539404625 369.2147877817176 1522.1095176049116 370.5798422810019Q1521.5634958051978 371.94489678028623 1521.5634958051978 373.30995127957056L1521.5634958051978 373.30995127957056Q1521.5634958051978 375.7670493782823 1523.4745721041959 377.83413190577Q1525.385648403194 379.9012144332577 1527.023713802335 379.9012144332577L1527.023713802335 379.9012144332577Q1531.1578788573106 379.9012144332577 1532.5229333565949 377.2881101060563Q1533.8879878558791 374.6750057788549 1533.8879878558791 372.4909185799999L1533.8879878558791 372.4909185799999Q1532.5229333565949 368.1227441822901 1528.3887683016192 368.1227441822901L1528.3887683016192 368.1227441822901Q1527.8427465019058 368.1227441822901 1526.2046811027644 368.6687659820039ZM1602.4527252770745 421.3208680972563L1602.4527252770745 421.3208680972563L1595.3154403236736 421.3208680972563Q1590.674255026107 423.7779661959681 1588.1781553702726 427.87312969382106Q1585.7210572715608 432.0072947487964 1584.4730074436438 436.53147537499586Q1583.2639591728494 441.05565600119536 1582.9909482729922 445.15081949904834Q1582.7179373731356 449.2849845540237 1582.7179373731356 451.7420826527355L1582.7179373731356 451.7420826527355Q1582.7179373731356 457.24130220699516 1584.1999965437867 462.1554984044188Q1585.7210572715608 467.10869615896473 1588.607172498619 470.8138440855936Q1591.4932877256774 474.51899201222244 1595.3154403236736 476.7030792110774Q1599.1765944787921 478.8871664099323 1604.0907906762154 478.8871664099323L1604.0907906762154 478.8871664099323Q1612.8661410287577 478.8871664099323 1617.6633325548141 475.0650138119362Q1622.4605240808705 471.20385965681766 1624.800617508215 465.47063075982356Q1627.1407109355596 459.69840030570697 1627.6867327352734 452.99013248065256Q1628.2327545349872 446.24286309847577 1628.2327545349872 440.5096342014816L1628.2327545349872 440.5096342014816Q1627.6867327352734 436.92149094622 1625.7756564362753 433.2163430195911Q1623.8255785801548 429.5501966500846 1620.9394633530965 426.7810860943936Q1618.0923496831606 424.0509770958249 1614.6602126563885 422.25690546819413Q1611.2280756296163 420.4628338405633 1607.6399323743549 420.4628338405633L1607.6399323743549 420.4628338405633Q1604.9098233757863 420.4628338405633 1602.4527252770745 421.3208680972563ZM1639.7382138860976 469.0197724579628L1639.7382138860976 469.0197724579628Q1636.7350939876724 481.6172754085009 1626.3216782359887 488.2085385621881Q1615.8692609271834 494.7998017158753 1603.271757976645 494.7998017158753L1603.271757976645 494.7998017158753Q1594.223396724246 494.7998017158753 1587.2421179993348 490.82164288938947Q1580.2218377173012 486.84348406290377 1575.5806524197346 480.40822713770626Q1570.9004655650456 473.97297021250876 1568.599373694823 465.86064633104763Q1566.2592802674785 457.7873240067089 1566.2592802674785 449.55799545388055L1566.2592802674785 449.55799545388055Q1566.2592802674785 442.9667323001934 1567.89734566662 435.1664208757116Q1569.5354110657613 427.3271078941073 1573.1235543210228 420.7748462975426Q1576.6726960191618 414.1835831438554 1582.4449264732784 409.6594025176559Q1588.1781553702726 405.13522189145647 1596.4074839231012 405.13522189145647L1596.4074839231012 405.13522189145647Q1600.814659877933 405.13522189145647 1602.4527252770745 405.95425459102705L1602.4527252770745 405.95425459102705Q1603.8177797763587 405.6812436911702 1604.9098233757863 405.6812436911702Q1606.0018669752135 405.6812436911702 1607.3669214744978 405.6812436911702L1607.3669214744978 405.6812436911702Q1620.2764368820153 405.6812436911702 1627.6867327352734 411.1414616883075Q1635.097028588531 416.64068124256715 1639.6212092147307 425.299026923742Q1644.14538984093 433.91837104779444 1646.8754988394985 444.33178679947775Q1649.605607838067 454.745202551161 1653.4667619931856 464.33958560327363L1653.4667619931856 464.33958560327363Q1654.5588055926132 467.6547179586784 1656.742892791468 471.63287678516417Q1658.9269799903232 475.6110356116499 1661.1500687463003 479.43318820964606Q1663.334155945155 483.29434236476453 1664.8162151158067 486.2974622631901Q1666.3372758435808 489.3005821616156 1666.3372758435808 490.97764911787914L1666.3372758435808 490.97764911787914Q1666.3372758435808 493.9807690163047 1664.153188644726 495.61883441544586Q1661.9691014458708 497.25689981458703 1659.1999908901798 497.25689981458703L1659.1999908901798 497.25689981458703Q1656.4698818916113 497.25689981458703 1653.583766664553 494.9168063872425Q1650.6976514374946 492.6157145170203 1648.1235486674154 488.75456036190184Q1645.5104443402142 484.9324077639057 1643.3263571413595 479.7061991095029Q1641.1032683853819 474.51899201222244 1639.7382138860976 469.0197724579628Z " fill="#10055" transform="matrix(0.5251038220957951,0,0,0.5251038220957952,0,75.81371786175245)"/></g></svg>